<mxfile host="app.diagrams.net" agent="Mozilla/5.0 (Windows NT 10.0; Win64; x64) AppleWebKit/537.36 (KHTML, like Gecko) Chrome/133.0.0.0 Safari/537.36 OPR/118.0.0.0" version="27.0.8">
  <diagram id="C5RBs43oDa-KdzZeNtuy" name="Page-1">
    <mxGraphModel dx="3172" dy="1100" grid="1" gridSize="10" guides="1" tooltips="1" connect="1" arrows="1" fold="1" page="1" pageScale="1" pageWidth="1169" pageHeight="1654" math="0" shadow="0">
      <root>
        <mxCell id="WIyWlLk6GJQsqaUBKTNV-0" />
        <mxCell id="WIyWlLk6GJQsqaUBKTNV-1" parent="WIyWlLk6GJQsqaUBKTNV-0" />
        <mxCell id="wGsFatY27bWZe55Ay8HK-10" value="MainFrame" style="swimlane;fontStyle=0;align=center;verticalAlign=top;childLayout=stackLayout;horizontal=1;startSize=25;horizontalStack=0;resizeParent=1;resizeLast=0;collapsible=1;marginBottom=0;rounded=0;shadow=0;strokeWidth=1;" vertex="1" parent="WIyWlLk6GJQsqaUBKTNV-1">
          <mxGeometry x="150" y="220" width="620" height="490" as="geometry">
            <mxRectangle x="550" y="140" width="160" height="26" as="alternateBounds" />
          </mxGeometry>
        </mxCell>
        <mxCell id="wGsFatY27bWZe55Ay8HK-11" value="- viewBills:ViewBills&#xa;- connection:Connection&#xa;- orderBLL:OrderBLL&#xa;- ProductBLL:ProductBLL&#xa;-  clientBLL:ClientBLL&#xa;-  billBLL:BillBLL" style="text;align=left;verticalAlign=top;spacingLeft=4;spacingRight=4;overflow=hidden;rotatable=0;points=[[0,0.5],[1,0.5]];portConstraint=eastwest;rounded=0;shadow=0;html=0;fontStyle=4" vertex="1" parent="wGsFatY27bWZe55Ay8HK-10">
          <mxGeometry y="25" width="620" height="95" as="geometry" />
        </mxCell>
        <mxCell id="wGsFatY27bWZe55Ay8HK-12" value="&#xa;-client_table:JTable&#xa;-order_table:JTable&#xa;-product_table:JTable&#xa;(other GUI components...)" style="text;align=left;verticalAlign=top;spacingLeft=4;spacingRight=4;overflow=hidden;rotatable=0;points=[[0,0.5],[1,0.5]];portConstraint=eastwest;rounded=0;shadow=0;html=0;fontStyle=0" vertex="1" parent="wGsFatY27bWZe55Ay8HK-10">
          <mxGeometry y="120" width="620" height="80" as="geometry" />
        </mxCell>
        <mxCell id="wGsFatY27bWZe55Ay8HK-13" value="" style="line;html=1;strokeWidth=1;align=left;verticalAlign=middle;spacingTop=-1;spacingLeft=3;spacingRight=3;rotatable=0;labelPosition=right;points=[];portConstraint=eastwest;" vertex="1" parent="wGsFatY27bWZe55Ay8HK-10">
          <mxGeometry y="200" width="620" height="8" as="geometry" />
        </mxCell>
        <mxCell id="wGsFatY27bWZe55Ay8HK-14" value="-MainFrame()&#xa;-loadPage():void&#xa;-buttons_components():void&#xa;-up_left_components():void&#xa;-up_right_components():void&#xa;-down_components():void&#xa;&#xa;-makeJTable(fields:JTextField[ ],entry:Map.Entry&lt;Object[ ][ ],ArrayList&lt;String&gt;&gt;,columnNames:String[ ]):JTable&#xa;-findColumnIndex(model:DefaultTableModel,columnName:String):int&#xa;-addRowData(table:JTable,function:Function&lt;String[ ],ArrayList&lt;Object&gt;&gt;,textFields:JTextField[ ]):void&#xa;-tableClickHandler(table:JTable,textFields:JTextField[ ],columnNames:String[ ]):void&#xa;-updateRowHelper(arr:ArrayList&lt;Object&gt;,table:JTable):void&#xa;-updateRowTable(table:JTable,function:BiConsumer&lt;Integer,String[ ]&gt;,arr:JTextField[ ]):void&#xa;-deleteRowTable(table:JTable,deleteOperation:Predicatre&lt;Integer&gt;):void&#xa;-addOrder():void&#xa;&#xa;+actionPerformed(e:ActionEvent):void &lt;&lt;override&gt;&gt;" style="text;align=left;verticalAlign=top;spacingLeft=4;spacingRight=4;overflow=hidden;rotatable=0;points=[[0,0.5],[1,0.5]];portConstraint=eastwest;fontStyle=0" vertex="1" parent="WIyWlLk6GJQsqaUBKTNV-1">
          <mxGeometry x="154" y="430" width="616" height="280" as="geometry" />
        </mxCell>
        <mxCell id="wGsFatY27bWZe55Ay8HK-20" value="ViewBills" style="swimlane;fontStyle=0;align=center;verticalAlign=top;childLayout=stackLayout;horizontal=1;startSize=26;horizontalStack=0;resizeParent=1;resizeLast=0;collapsible=1;marginBottom=0;rounded=0;shadow=0;strokeWidth=1;" vertex="1" parent="WIyWlLk6GJQsqaUBKTNV-1">
          <mxGeometry x="870" y="220" width="480" height="150" as="geometry">
            <mxRectangle x="550" y="140" width="160" height="26" as="alternateBounds" />
          </mxGeometry>
        </mxCell>
        <mxCell id="wGsFatY27bWZe55Ay8HK-21" value="-table: JTable" style="text;align=left;verticalAlign=top;spacingLeft=4;spacingRight=4;overflow=hidden;rotatable=0;points=[[0,0.5],[1,0.5]];portConstraint=eastwest;rounded=0;shadow=0;html=0;fontStyle=4" vertex="1" parent="wGsFatY27bWZe55Ay8HK-20">
          <mxGeometry y="26" width="480" height="34" as="geometry" />
        </mxCell>
        <mxCell id="wGsFatY27bWZe55Ay8HK-22" value="" style="line;html=1;strokeWidth=1;align=left;verticalAlign=middle;spacingTop=-1;spacingLeft=3;spacingRight=3;rotatable=0;labelPosition=right;points=[];portConstraint=eastwest;" vertex="1" parent="wGsFatY27bWZe55Ay8HK-20">
          <mxGeometry y="60" width="480" height="8" as="geometry" />
        </mxCell>
        <mxCell id="wGsFatY27bWZe55Ay8HK-23" value="+ViewBills(parent: JFrame,title: String,billBLL: BillBLL)&#xa;&#xa;-+addBill(newBill: Bill) : void&#xa;+ getTable():JTable&#xa;&#xa;&#xa;&#xa;&#xa;&#xa;" style="text;align=left;verticalAlign=top;spacingLeft=4;spacingRight=4;overflow=hidden;rotatable=0;points=[[0,0.5],[1,0.5]];portConstraint=eastwest;" vertex="1" parent="wGsFatY27bWZe55Ay8HK-20">
          <mxGeometry y="68" width="480" height="82" as="geometry" />
        </mxCell>
        <mxCell id="wGsFatY27bWZe55Ay8HK-24" value="" style="endArrow=diamondThin;endFill=1;endSize=24;html=1;rounded=0;entryX=1.006;entryY=0.998;entryDx=0;entryDy=0;entryPerimeter=0;exitX=-0.002;exitY=0.942;exitDx=0;exitDy=0;exitPerimeter=0;" edge="1" parent="WIyWlLk6GJQsqaUBKTNV-1" source="wGsFatY27bWZe55Ay8HK-21" target="wGsFatY27bWZe55Ay8HK-12">
          <mxGeometry width="160" relative="1" as="geometry">
            <mxPoint x="1040" y="680" as="sourcePoint" />
            <mxPoint x="1215" y="470" as="targetPoint" />
          </mxGeometry>
        </mxCell>
        <mxCell id="wGsFatY27bWZe55Ay8HK-46" value="AbstractDAO&lt;T&gt;" style="swimlane;fontStyle=0;align=center;verticalAlign=top;childLayout=stackLayout;horizontal=1;startSize=25;horizontalStack=0;resizeParent=1;resizeLast=0;collapsible=1;marginBottom=0;rounded=0;shadow=0;strokeWidth=1;" vertex="1" parent="WIyWlLk6GJQsqaUBKTNV-1">
          <mxGeometry x="1020" y="480" width="565" height="460" as="geometry">
            <mxRectangle x="550" y="140" width="160" height="26" as="alternateBounds" />
          </mxGeometry>
        </mxCell>
        <mxCell id="wGsFatY27bWZe55Ay8HK-47" value="# LOGGER: LOGGER&#xa;- type: Class&lt;T&gt;&#xa;" style="text;align=left;verticalAlign=top;spacingLeft=4;spacingRight=4;overflow=hidden;rotatable=0;points=[[0,0.5],[1,0.5]];portConstraint=eastwest;rounded=0;shadow=0;html=0;fontStyle=4" vertex="1" parent="wGsFatY27bWZe55Ay8HK-46">
          <mxGeometry y="25" width="565" height="45" as="geometry" />
        </mxCell>
        <mxCell id="wGsFatY27bWZe55Ay8HK-48" value="" style="line;html=1;strokeWidth=1;align=left;verticalAlign=middle;spacingTop=-1;spacingLeft=3;spacingRight=3;rotatable=0;labelPosition=right;points=[];portConstraint=eastwest;" vertex="1" parent="wGsFatY27bWZe55Ay8HK-46">
          <mxGeometry y="70" width="565" height="8" as="geometry" />
        </mxCell>
        <mxCell id="wGsFatY27bWZe55Ay8HK-49" value="+AbstractDAO()&#xa;-getBaseConstructor(log:String):Constructor&#xa;-createObjects(resultSet:ResultSet,nrOfColumns:Integer):List&lt;T&gt;&#xa;+retrieveProperties(object:Object,values:ArrayList&lt;Object&gt;,names:ArrayList&lt;String&gt;) : void&#xa;&#xa;-updateQuery(columnToUpdate:List&lt;String&gt;,whereColumn:String):String&#xa;-findByFieldQuery(field:String):String&#xa;-findByFieldsQuery(fields:ArrayList&lt;String&gt;):String&#xa;-findAllQuery():String&#xa;-insertQuery(names:ArrayList&lt;String&gt;,nr_of_fields:int):String&#xa;-findIdFromSomethingQuery(typeName:String):String&#xa;-deleteQuery():String&#xa;&#xa;+findAll(nrOfColumns:Integer):List&lt;T&gt;&#xa;+findById(id:int):T&#xa;+findByFields(t :T):T&#xa;+findIdFromSomething(columnName:String,value:String):int&#xa;&#xa;+insert(t: T):T&#xa;+delete(id:int):boolean&#xa;+update(t: T): T&#xa;+tableHelper():Map.Entry&lt;Object[ ][ ],ArrayList&lt;String&gt;&gt;" style="text;align=left;verticalAlign=top;spacingLeft=4;spacingRight=4;overflow=hidden;rotatable=0;points=[[0,0.5],[1,0.5]];portConstraint=eastwest;fontStyle=0" vertex="1" parent="wGsFatY27bWZe55Ay8HK-46">
          <mxGeometry y="78" width="565" height="380" as="geometry" />
        </mxCell>
        <mxCell id="wGsFatY27bWZe55Ay8HK-51" value="BillDAO" style="swimlane;fontStyle=0;align=center;verticalAlign=top;childLayout=stackLayout;horizontal=1;startSize=25;horizontalStack=0;resizeParent=1;resizeLast=0;collapsible=1;marginBottom=0;rounded=0;shadow=0;strokeWidth=1;" vertex="1" parent="WIyWlLk6GJQsqaUBKTNV-1">
          <mxGeometry x="650" y="1080" width="565" height="160" as="geometry">
            <mxRectangle x="550" y="140" width="160" height="26" as="alternateBounds" />
          </mxGeometry>
        </mxCell>
        <mxCell id="wGsFatY27bWZe55Ay8HK-52" value="&#xa;" style="text;align=left;verticalAlign=top;spacingLeft=4;spacingRight=4;overflow=hidden;rotatable=0;points=[[0,0.5],[1,0.5]];portConstraint=eastwest;rounded=0;shadow=0;html=0;fontStyle=4" vertex="1" parent="wGsFatY27bWZe55Ay8HK-51">
          <mxGeometry y="25" width="565" height="25" as="geometry" />
        </mxCell>
        <mxCell id="wGsFatY27bWZe55Ay8HK-53" value="" style="line;html=1;strokeWidth=1;align=left;verticalAlign=middle;spacingTop=-1;spacingLeft=3;spacingRight=3;rotatable=0;labelPosition=right;points=[];portConstraint=eastwest;" vertex="1" parent="wGsFatY27bWZe55Ay8HK-51">
          <mxGeometry y="50" width="565" height="8" as="geometry" />
        </mxCell>
        <mxCell id="wGsFatY27bWZe55Ay8HK-54" value="-findAllQuery():String&#xa;-insertQuery():String&#xa;&#xa;+insertBill(name:String,productName:String,quantity:int,totalPrice:double):int&#xa;+tableHelper():Map.Entry&lt;Object[ ][ ],ArrayList&lt;String&gt;&gt; &lt;&lt;override&gt;&gt;" style="text;align=left;verticalAlign=top;spacingLeft=4;spacingRight=4;overflow=hidden;rotatable=0;points=[[0,0.5],[1,0.5]];portConstraint=eastwest;fontStyle=0" vertex="1" parent="wGsFatY27bWZe55Ay8HK-51">
          <mxGeometry y="58" width="565" height="92" as="geometry" />
        </mxCell>
        <mxCell id="wGsFatY27bWZe55Ay8HK-55" value="" style="endArrow=block;endFill=1;html=1;edgeStyle=orthogonalEdgeStyle;align=left;verticalAlign=top;rounded=0;exitX=0.398;exitY=-0.008;exitDx=0;exitDy=0;exitPerimeter=0;entryX=0.25;entryY=1;entryDx=0;entryDy=0;" edge="1" parent="WIyWlLk6GJQsqaUBKTNV-1" source="wGsFatY27bWZe55Ay8HK-51" target="wGsFatY27bWZe55Ay8HK-46">
          <mxGeometry x="-1" relative="1" as="geometry">
            <mxPoint x="870" y="930" as="sourcePoint" />
            <mxPoint x="875" y="820" as="targetPoint" />
          </mxGeometry>
        </mxCell>
        <mxCell id="wGsFatY27bWZe55Ay8HK-56" value="Extends AbstractDAO&amp;lt;Bill&amp;gt;" style="edgeLabel;html=1;align=center;verticalAlign=middle;resizable=0;points=[];" vertex="1" connectable="0" parent="wGsFatY27bWZe55Ay8HK-55">
          <mxGeometry x="-0.1151" y="3" relative="1" as="geometry">
            <mxPoint x="1" as="offset" />
          </mxGeometry>
        </mxCell>
        <mxCell id="wGsFatY27bWZe55Ay8HK-57" value="ClientDAO" style="swimlane;fontStyle=0;align=center;verticalAlign=top;childLayout=stackLayout;horizontal=1;startSize=25;horizontalStack=0;resizeParent=1;resizeLast=0;collapsible=1;marginBottom=0;rounded=0;shadow=0;strokeWidth=1;" vertex="1" parent="WIyWlLk6GJQsqaUBKTNV-1">
          <mxGeometry x="1275" y="1200" width="565" height="100" as="geometry">
            <mxRectangle x="550" y="140" width="160" height="26" as="alternateBounds" />
          </mxGeometry>
        </mxCell>
        <mxCell id="wGsFatY27bWZe55Ay8HK-58" value="&#xa;" style="text;align=left;verticalAlign=top;spacingLeft=4;spacingRight=4;overflow=hidden;rotatable=0;points=[[0,0.5],[1,0.5]];portConstraint=eastwest;rounded=0;shadow=0;html=0;fontStyle=4" vertex="1" parent="wGsFatY27bWZe55Ay8HK-57">
          <mxGeometry y="25" width="565" height="25" as="geometry" />
        </mxCell>
        <mxCell id="wGsFatY27bWZe55Ay8HK-59" value="" style="line;html=1;strokeWidth=1;align=left;verticalAlign=middle;spacingTop=-1;spacingLeft=3;spacingRight=3;rotatable=0;labelPosition=right;points=[];portConstraint=eastwest;" vertex="1" parent="wGsFatY27bWZe55Ay8HK-57">
          <mxGeometry y="50" width="565" height="8" as="geometry" />
        </mxCell>
        <mxCell id="wGsFatY27bWZe55Ay8HK-60" value="+clientExists(client:Client) :Client" style="text;align=left;verticalAlign=top;spacingLeft=4;spacingRight=4;overflow=hidden;rotatable=0;points=[[0,0.5],[1,0.5]];portConstraint=eastwest;fontStyle=0" vertex="1" parent="wGsFatY27bWZe55Ay8HK-57">
          <mxGeometry y="58" width="565" height="42" as="geometry" />
        </mxCell>
        <mxCell id="wGsFatY27bWZe55Ay8HK-62" value="Extends AbstractDAO&amp;lt;Client&amp;gt;" style="html=1;verticalAlign=bottom;endArrow=block;curved=0;rounded=0;entryX=0.584;entryY=1.005;entryDx=0;entryDy=0;entryPerimeter=0;exitX=0.191;exitY=0.007;exitDx=0;exitDy=0;exitPerimeter=0;" edge="1" parent="WIyWlLk6GJQsqaUBKTNV-1" source="wGsFatY27bWZe55Ay8HK-57" target="wGsFatY27bWZe55Ay8HK-49">
          <mxGeometry width="80" relative="1" as="geometry">
            <mxPoint x="1350" y="1080" as="sourcePoint" />
            <mxPoint x="1320" y="1090" as="targetPoint" />
          </mxGeometry>
        </mxCell>
        <mxCell id="wGsFatY27bWZe55Ay8HK-63" value="OrderDAO" style="swimlane;fontStyle=0;align=center;verticalAlign=top;childLayout=stackLayout;horizontal=1;startSize=25;horizontalStack=0;resizeParent=1;resizeLast=0;collapsible=1;marginBottom=0;rounded=0;shadow=0;strokeWidth=1;" vertex="1" parent="WIyWlLk6GJQsqaUBKTNV-1">
          <mxGeometry x="1570" y="960" width="200" height="100" as="geometry">
            <mxRectangle x="550" y="140" width="160" height="26" as="alternateBounds" />
          </mxGeometry>
        </mxCell>
        <mxCell id="wGsFatY27bWZe55Ay8HK-64" value="&#xa;" style="text;align=left;verticalAlign=top;spacingLeft=4;spacingRight=4;overflow=hidden;rotatable=0;points=[[0,0.5],[1,0.5]];portConstraint=eastwest;rounded=0;shadow=0;html=0;fontStyle=4" vertex="1" parent="wGsFatY27bWZe55Ay8HK-63">
          <mxGeometry y="25" width="200" height="25" as="geometry" />
        </mxCell>
        <mxCell id="wGsFatY27bWZe55Ay8HK-65" value="" style="line;html=1;strokeWidth=1;align=left;verticalAlign=middle;spacingTop=-1;spacingLeft=3;spacingRight=3;rotatable=0;labelPosition=right;points=[];portConstraint=eastwest;" vertex="1" parent="wGsFatY27bWZe55Ay8HK-63">
          <mxGeometry y="50" width="200" height="8" as="geometry" />
        </mxCell>
        <mxCell id="wGsFatY27bWZe55Ay8HK-67" value="Extends AbstractDAO&amp;lt;Order&amp;gt;" style="html=1;verticalAlign=bottom;endArrow=block;curved=0;rounded=0;entryX=1.007;entryY=0.845;entryDx=0;entryDy=0;entryPerimeter=0;exitX=0.415;exitY=0.022;exitDx=0;exitDy=0;exitPerimeter=0;" edge="1" parent="WIyWlLk6GJQsqaUBKTNV-1" source="wGsFatY27bWZe55Ay8HK-63" target="wGsFatY27bWZe55Ay8HK-49">
          <mxGeometry x="-0.7934" y="-55" width="80" relative="1" as="geometry">
            <mxPoint x="1640" y="1020" as="sourcePoint" />
            <mxPoint x="1640" y="880" as="targetPoint" />
            <mxPoint as="offset" />
          </mxGeometry>
        </mxCell>
        <mxCell id="wGsFatY27bWZe55Ay8HK-68" value="ProductDAO" style="swimlane;fontStyle=0;align=center;verticalAlign=top;childLayout=stackLayout;horizontal=1;startSize=25;horizontalStack=0;resizeParent=1;resizeLast=0;collapsible=1;marginBottom=0;rounded=0;shadow=0;strokeWidth=1;" vertex="1" parent="WIyWlLk6GJQsqaUBKTNV-1">
          <mxGeometry x="350" y="760" width="565" height="160" as="geometry">
            <mxRectangle x="550" y="140" width="160" height="26" as="alternateBounds" />
          </mxGeometry>
        </mxCell>
        <mxCell id="wGsFatY27bWZe55Ay8HK-69" value="&#xa;" style="text;align=left;verticalAlign=top;spacingLeft=4;spacingRight=4;overflow=hidden;rotatable=0;points=[[0,0.5],[1,0.5]];portConstraint=eastwest;rounded=0;shadow=0;html=0;fontStyle=4" vertex="1" parent="wGsFatY27bWZe55Ay8HK-68">
          <mxGeometry y="25" width="565" height="25" as="geometry" />
        </mxCell>
        <mxCell id="wGsFatY27bWZe55Ay8HK-70" value="" style="line;html=1;strokeWidth=1;align=left;verticalAlign=middle;spacingTop=-1;spacingLeft=3;spacingRight=3;rotatable=0;labelPosition=right;points=[];portConstraint=eastwest;" vertex="1" parent="wGsFatY27bWZe55Ay8HK-68">
          <mxGeometry y="50" width="565" height="8" as="geometry" />
        </mxCell>
        <mxCell id="wGsFatY27bWZe55Ay8HK-71" value="-updateQuantityQuery():String&#xa;&#xa;&#xa;+updateQuantity(id:int,new_quantity:int):void&#xa;+ProductExists(product:Product) : boolean" style="text;align=left;verticalAlign=top;spacingLeft=4;spacingRight=4;overflow=hidden;rotatable=0;points=[[0,0.5],[1,0.5]];portConstraint=eastwest;fontStyle=0" vertex="1" parent="wGsFatY27bWZe55Ay8HK-68">
          <mxGeometry y="58" width="565" height="92" as="geometry" />
        </mxCell>
        <mxCell id="wGsFatY27bWZe55Ay8HK-72" value="Extends AbstractDAO&amp;lt;Product&amp;gt;" style="html=1;verticalAlign=bottom;endArrow=block;curved=0;rounded=0;entryX=-0.008;entryY=0.306;entryDx=0;entryDy=0;entryPerimeter=0;exitX=1;exitY=0.5;exitDx=0;exitDy=0;" edge="1" parent="WIyWlLk6GJQsqaUBKTNV-1" source="wGsFatY27bWZe55Ay8HK-69" target="wGsFatY27bWZe55Ay8HK-49">
          <mxGeometry x="-0.4612" y="54" width="80" relative="1" as="geometry">
            <mxPoint x="1754" y="893" as="sourcePoint" />
            <mxPoint x="1690" y="810" as="targetPoint" />
            <mxPoint as="offset" />
          </mxGeometry>
        </mxCell>
        <mxCell id="wGsFatY27bWZe55Ay8HK-73" value="ConnectionFactory" style="swimlane;fontStyle=0;align=center;verticalAlign=top;childLayout=stackLayout;horizontal=1;startSize=25;horizontalStack=0;resizeParent=1;resizeLast=0;collapsible=1;marginBottom=0;rounded=0;shadow=0;strokeWidth=1;" vertex="1" parent="WIyWlLk6GJQsqaUBKTNV-1">
          <mxGeometry x="140" y="1110" width="260" height="280" as="geometry">
            <mxRectangle x="550" y="140" width="160" height="26" as="alternateBounds" />
          </mxGeometry>
        </mxCell>
        <mxCell id="wGsFatY27bWZe55Ay8HK-74" value="- LOGGER:LOGGER &#xa;- DRIVER: String&#xa;-DBURL:String&#xa;-USER:String&#xa;-PASS:String&#xa;-SINGLEINSTANCE :ConnectionFactory&#xa;&#xa;" style="text;align=left;verticalAlign=top;spacingLeft=4;spacingRight=4;overflow=hidden;rotatable=0;points=[[0,0.5],[1,0.5]];portConstraint=eastwest;rounded=0;shadow=0;html=0;fontStyle=4" vertex="1" parent="wGsFatY27bWZe55Ay8HK-73">
          <mxGeometry y="25" width="260" height="105" as="geometry" />
        </mxCell>
        <mxCell id="wGsFatY27bWZe55Ay8HK-84" value="&lt;span style=&quot;text-align: left; text-wrap-mode: nowrap;&quot;&gt;-CONNECTION:Connection=null&lt;/span&gt;" style="html=1;whiteSpace=wrap;" vertex="1" parent="wGsFatY27bWZe55Ay8HK-73">
          <mxGeometry y="130" width="260" height="40" as="geometry" />
        </mxCell>
        <mxCell id="wGsFatY27bWZe55Ay8HK-75" value="" style="line;html=1;strokeWidth=1;align=left;verticalAlign=middle;spacingTop=-1;spacingLeft=3;spacingRight=3;rotatable=0;labelPosition=right;points=[];portConstraint=eastwest;" vertex="1" parent="wGsFatY27bWZe55Ay8HK-73">
          <mxGeometry y="170" width="260" as="geometry" />
        </mxCell>
        <mxCell id="wGsFatY27bWZe55Ay8HK-76" value="-ConnectionFactory()&#xa;-createConnection()&#xa;&#xa;" style="text;align=left;verticalAlign=top;spacingLeft=4;spacingRight=4;overflow=hidden;rotatable=0;points=[[0,0.5],[1,0.5]];portConstraint=eastwest;fontStyle=0" vertex="1" parent="wGsFatY27bWZe55Ay8HK-73">
          <mxGeometry y="170" width="260" height="42" as="geometry" />
        </mxCell>
        <mxCell id="wGsFatY27bWZe55Ay8HK-77" value="+CLOSE(statement:Statement):void&#xa;+CLOSE(resultSet:ResultSet):void&#xa;+CLOSE():void&#xa;+GETCONNECTION():Connection&#xa;" style="text;align=left;verticalAlign=top;spacingLeft=4;spacingRight=4;overflow=hidden;rotatable=0;points=[[0,0.5],[1,0.5]];portConstraint=eastwest;fontStyle=0" vertex="1" parent="wGsFatY27bWZe55Ay8HK-73">
          <mxGeometry y="212" width="260" height="68" as="geometry" />
        </mxCell>
        <mxCell id="wGsFatY27bWZe55Ay8HK-78" value="" style="endArrow=open;endFill=1;endSize=12;html=1;rounded=0;exitX=1.018;exitY=-0.105;exitDx=0;exitDy=0;entryX=0;entryY=0.987;entryDx=0;entryDy=0;entryPerimeter=0;exitPerimeter=0;" edge="1" parent="WIyWlLk6GJQsqaUBKTNV-1" source="wGsFatY27bWZe55Ay8HK-74" target="wGsFatY27bWZe55Ay8HK-49">
          <mxGeometry width="160" relative="1" as="geometry">
            <mxPoint x="723" y="780" as="sourcePoint" />
            <mxPoint x="510" y="792" as="targetPoint" />
          </mxGeometry>
        </mxCell>
        <mxCell id="wGsFatY27bWZe55Ay8HK-79" value="" style="endArrow=open;endFill=1;endSize=12;html=1;rounded=0;exitX=1;exitY=0.5;exitDx=0;exitDy=0;entryX=-0.004;entryY=0.873;entryDx=0;entryDy=0;entryPerimeter=0;" edge="1" parent="WIyWlLk6GJQsqaUBKTNV-1" source="wGsFatY27bWZe55Ay8HK-76" target="wGsFatY27bWZe55Ay8HK-54">
          <mxGeometry width="160" relative="1" as="geometry">
            <mxPoint x="530" y="1247" as="sourcePoint" />
            <mxPoint x="1105" y="1120" as="targetPoint" />
          </mxGeometry>
        </mxCell>
        <mxCell id="wGsFatY27bWZe55Ay8HK-80" value="" style="endArrow=open;endFill=1;endSize=12;html=1;rounded=0;exitX=0.75;exitY=0;exitDx=0;exitDy=0;" edge="1" parent="WIyWlLk6GJQsqaUBKTNV-1" source="wGsFatY27bWZe55Ay8HK-73">
          <mxGeometry width="160" relative="1" as="geometry">
            <mxPoint x="620" y="1317" as="sourcePoint" />
            <mxPoint x="550" y="930" as="targetPoint" />
          </mxGeometry>
        </mxCell>
        <mxCell id="wGsFatY27bWZe55Ay8HK-82" value="" style="endArrow=open;endFill=1;endSize=12;html=1;rounded=0;exitX=1.01;exitY=0.941;exitDx=0;exitDy=0;entryX=0;entryY=0.5;entryDx=0;entryDy=0;exitPerimeter=0;" edge="1" parent="WIyWlLk6GJQsqaUBKTNV-1" source="wGsFatY27bWZe55Ay8HK-77" target="wGsFatY27bWZe55Ay8HK-60">
          <mxGeometry width="160" relative="1" as="geometry">
            <mxPoint x="630" y="1477" as="sourcePoint" />
            <mxPoint x="1205" y="1350" as="targetPoint" />
          </mxGeometry>
        </mxCell>
        <mxCell id="wGsFatY27bWZe55Ay8HK-83" value="&amp;lt;&amp;lt;Singleton&amp;gt;&amp;gt;" style="text;align=center;fontStyle=1;verticalAlign=middle;spacingLeft=3;spacingRight=3;strokeColor=none;rotatable=0;points=[[0,0.5],[1,0.5]];portConstraint=eastwest;html=1;" vertex="1" parent="WIyWlLk6GJQsqaUBKTNV-1">
          <mxGeometry x="210" y="1080" width="80" height="26" as="geometry" />
        </mxCell>
        <mxCell id="wGsFatY27bWZe55Ay8HK-85" value="Validator&lt;T&gt;" style="swimlane;fontStyle=0;align=center;verticalAlign=top;childLayout=stackLayout;horizontal=1;startSize=26;horizontalStack=0;resizeParent=1;resizeLast=0;collapsible=1;marginBottom=0;rounded=0;shadow=0;strokeWidth=1;" vertex="1" parent="WIyWlLk6GJQsqaUBKTNV-1">
          <mxGeometry x="1520" y="320" width="330" height="64" as="geometry">
            <mxRectangle x="230" y="140" width="160" height="26" as="alternateBounds" />
          </mxGeometry>
        </mxCell>
        <mxCell id="wGsFatY27bWZe55Ay8HK-86" value="" style="line;html=1;strokeWidth=1;align=left;verticalAlign=middle;spacingTop=-1;spacingLeft=3;spacingRight=3;rotatable=0;labelPosition=right;points=[];portConstraint=eastwest;" vertex="1" parent="wGsFatY27bWZe55Ay8HK-85">
          <mxGeometry y="26" width="330" height="8" as="geometry" />
        </mxCell>
        <mxCell id="wGsFatY27bWZe55Ay8HK-87" value="&lt;span style=&quot;text-align: left;&quot;&gt;validate(t: T):void&lt;/span&gt;" style="text;html=1;align=center;verticalAlign=middle;resizable=0;points=[];autosize=1;strokeColor=none;fillColor=none;" vertex="1" parent="wGsFatY27bWZe55Ay8HK-85">
          <mxGeometry y="34" width="330" height="30" as="geometry" />
        </mxCell>
        <mxCell id="wGsFatY27bWZe55Ay8HK-88" value="&amp;lt;&amp;lt;interface&amp;gt;&amp;gt;" style="text;align=center;fontStyle=1;verticalAlign=middle;spacingLeft=3;spacingRight=3;strokeColor=none;rotatable=0;points=[[0,0.5],[1,0.5]];portConstraint=eastwest;html=1;" vertex="1" parent="WIyWlLk6GJQsqaUBKTNV-1">
          <mxGeometry x="1645" y="290" width="80" height="26" as="geometry" />
        </mxCell>
        <mxCell id="wGsFatY27bWZe55Ay8HK-89" value="Validation&lt;T&gt;" style="swimlane;fontStyle=0;align=center;verticalAlign=top;childLayout=stackLayout;horizontal=1;startSize=26;horizontalStack=0;resizeParent=1;resizeLast=0;collapsible=1;marginBottom=0;rounded=0;shadow=0;strokeWidth=1;" vertex="1" parent="WIyWlLk6GJQsqaUBKTNV-1">
          <mxGeometry x="2120" y="290" width="330" height="100" as="geometry">
            <mxRectangle x="230" y="140" width="160" height="26" as="alternateBounds" />
          </mxGeometry>
        </mxCell>
        <mxCell id="wGsFatY27bWZe55Ay8HK-90" value="" style="line;html=1;strokeWidth=1;align=left;verticalAlign=middle;spacingTop=-1;spacingLeft=3;spacingRight=3;rotatable=0;labelPosition=right;points=[];portConstraint=eastwest;" vertex="1" parent="wGsFatY27bWZe55Ay8HK-89">
          <mxGeometry y="26" width="330" height="8" as="geometry" />
        </mxCell>
        <mxCell id="wGsFatY27bWZe55Ay8HK-91" value="&lt;span style=&quot;text-align: left;&quot;&gt;+idValid(validators: List&amp;lt;Validator&amp;lt;T&amp;gt;&amp;gt;,object T):void&lt;/span&gt;&lt;div&gt;&lt;span style=&quot;text-align: left; background-color: transparent; color: light-dark(rgb(0, 0, 0), rgb(255, 255, 255));&quot;&gt;&amp;nbsp;+validateInteger(number:String) : void&lt;/span&gt;&lt;div&gt;+validateDouble(&lt;span style=&quot;text-align: left; background-color: transparent; color: light-dark(rgb(0, 0, 0), rgb(255, 255, 255));&quot;&gt;number:String&lt;/span&gt;&lt;span style=&quot;background-color: transparent; color: light-dark(rgb(0, 0, 0), rgb(255, 255, 255));&quot;&gt;) : void&lt;/span&gt;&lt;/div&gt;&lt;/div&gt;" style="text;html=1;align=center;verticalAlign=middle;resizable=0;points=[];autosize=1;strokeColor=none;fillColor=none;" vertex="1" parent="wGsFatY27bWZe55Ay8HK-89">
          <mxGeometry y="34" width="330" height="60" as="geometry" />
        </mxCell>
        <mxCell id="wGsFatY27bWZe55Ay8HK-94" value="ClientEmailValidator" style="swimlane;fontStyle=0;align=center;verticalAlign=top;childLayout=stackLayout;horizontal=1;startSize=26;horizontalStack=0;resizeParent=1;resizeLast=0;collapsible=1;marginBottom=0;rounded=0;shadow=0;strokeWidth=1;" vertex="1" parent="WIyWlLk6GJQsqaUBKTNV-1">
          <mxGeometry x="2150" y="480" width="230" height="110" as="geometry">
            <mxRectangle x="550" y="140" width="160" height="26" as="alternateBounds" />
          </mxGeometry>
        </mxCell>
        <mxCell id="wGsFatY27bWZe55Ay8HK-95" value="-EMAILPATTERN : String" style="text;align=left;verticalAlign=top;spacingLeft=4;spacingRight=4;overflow=hidden;rotatable=0;points=[[0,0.5],[1,0.5]];portConstraint=eastwest;fontStyle=4" vertex="1" parent="wGsFatY27bWZe55Ay8HK-94">
          <mxGeometry y="26" width="230" height="26" as="geometry" />
        </mxCell>
        <mxCell id="wGsFatY27bWZe55Ay8HK-97" value="" style="line;html=1;strokeWidth=1;align=left;verticalAlign=middle;spacingTop=-1;spacingLeft=3;spacingRight=3;rotatable=0;labelPosition=right;points=[];portConstraint=eastwest;" vertex="1" parent="wGsFatY27bWZe55Ay8HK-94">
          <mxGeometry y="52" width="230" height="8" as="geometry" />
        </mxCell>
        <mxCell id="wGsFatY27bWZe55Ay8HK-99" value="&#xa;+ validate(t: Client):void&lt;&lt;override&gt;&gt;" style="text;align=left;verticalAlign=top;spacingLeft=4;spacingRight=4;overflow=hidden;rotatable=0;points=[[0,0.5],[1,0.5]];portConstraint=eastwest;" vertex="1" parent="wGsFatY27bWZe55Ay8HK-94">
          <mxGeometry y="60" width="230" height="50" as="geometry" />
        </mxCell>
        <mxCell id="wGsFatY27bWZe55Ay8HK-100" value="Implements Validator&amp;lt;Client&amp;gt;" style="endArrow=open;endSize=12;dashed=1;html=1;rounded=0;exitX=0.939;exitY=1.2;exitDx=0;exitDy=0;exitPerimeter=0;entryX=0.111;entryY=0;entryDx=0;entryDy=0;entryPerimeter=0;" edge="1" parent="WIyWlLk6GJQsqaUBKTNV-1" source="wGsFatY27bWZe55Ay8HK-87" target="wGsFatY27bWZe55Ay8HK-94">
          <mxGeometry width="160" relative="1" as="geometry">
            <mxPoint x="1840" y="430" as="sourcePoint" />
            <mxPoint x="1915" y="454" as="targetPoint" />
          </mxGeometry>
        </mxCell>
        <mxCell id="wGsFatY27bWZe55Ay8HK-101" value="ClientNameValidator" style="swimlane;fontStyle=0;align=center;verticalAlign=top;childLayout=stackLayout;horizontal=1;startSize=26;horizontalStack=0;resizeParent=1;resizeLast=0;collapsible=1;marginBottom=0;rounded=0;shadow=0;strokeWidth=1;" vertex="1" parent="WIyWlLk6GJQsqaUBKTNV-1">
          <mxGeometry x="1900" y="480" width="230" height="110" as="geometry">
            <mxRectangle x="550" y="140" width="160" height="26" as="alternateBounds" />
          </mxGeometry>
        </mxCell>
        <mxCell id="wGsFatY27bWZe55Ay8HK-103" value="" style="line;html=1;strokeWidth=1;align=left;verticalAlign=middle;spacingTop=-1;spacingLeft=3;spacingRight=3;rotatable=0;labelPosition=right;points=[];portConstraint=eastwest;" vertex="1" parent="wGsFatY27bWZe55Ay8HK-101">
          <mxGeometry y="26" width="230" height="8" as="geometry" />
        </mxCell>
        <mxCell id="wGsFatY27bWZe55Ay8HK-104" value="&#xa;+ validate(t: Client):void&lt;&lt;override&gt;&gt;" style="text;align=left;verticalAlign=top;spacingLeft=4;spacingRight=4;overflow=hidden;rotatable=0;points=[[0,0.5],[1,0.5]];portConstraint=eastwest;" vertex="1" parent="wGsFatY27bWZe55Ay8HK-101">
          <mxGeometry y="34" width="230" height="50" as="geometry" />
        </mxCell>
        <mxCell id="wGsFatY27bWZe55Ay8HK-105" value="Implements Validator&amp;lt;Client&amp;gt;" style="endArrow=open;endSize=12;dashed=1;html=1;rounded=0;exitX=0.525;exitY=1.049;exitDx=0;exitDy=0;exitPerimeter=0;entryX=0.5;entryY=0;entryDx=0;entryDy=0;" edge="1" parent="WIyWlLk6GJQsqaUBKTNV-1" source="wGsFatY27bWZe55Ay8HK-87" target="wGsFatY27bWZe55Ay8HK-101">
          <mxGeometry width="160" relative="1" as="geometry">
            <mxPoint x="1690" y="430" as="sourcePoint" />
            <mxPoint x="1746" y="530" as="targetPoint" />
          </mxGeometry>
        </mxCell>
        <mxCell id="wGsFatY27bWZe55Ay8HK-106" value="ProductNameValidator" style="swimlane;fontStyle=0;align=center;verticalAlign=top;childLayout=stackLayout;horizontal=1;startSize=26;horizontalStack=0;resizeParent=1;resizeLast=0;collapsible=1;marginBottom=0;rounded=0;shadow=0;strokeWidth=1;" vertex="1" parent="WIyWlLk6GJQsqaUBKTNV-1">
          <mxGeometry x="1610" y="650" width="230" height="110" as="geometry">
            <mxRectangle x="550" y="140" width="160" height="26" as="alternateBounds" />
          </mxGeometry>
        </mxCell>
        <mxCell id="wGsFatY27bWZe55Ay8HK-107" value="" style="line;html=1;strokeWidth=1;align=left;verticalAlign=middle;spacingTop=-1;spacingLeft=3;spacingRight=3;rotatable=0;labelPosition=right;points=[];portConstraint=eastwest;" vertex="1" parent="wGsFatY27bWZe55Ay8HK-106">
          <mxGeometry y="26" width="230" height="8" as="geometry" />
        </mxCell>
        <mxCell id="wGsFatY27bWZe55Ay8HK-108" value="&#xa;+ validate(t : Product):void&lt;&lt;override&gt;&gt;" style="text;align=left;verticalAlign=top;spacingLeft=4;spacingRight=4;overflow=hidden;rotatable=0;points=[[0,0.5],[1,0.5]];portConstraint=eastwest;" vertex="1" parent="wGsFatY27bWZe55Ay8HK-106">
          <mxGeometry y="34" width="230" height="50" as="geometry" />
        </mxCell>
        <mxCell id="wGsFatY27bWZe55Ay8HK-109" value="Implements Validator&amp;lt;Product&amp;gt;" style="endArrow=open;endSize=12;dashed=1;html=1;rounded=0;exitX=0.293;exitY=1.001;exitDx=0;exitDy=0;exitPerimeter=0;entryX=0;entryY=0;entryDx=0;entryDy=0;" edge="1" parent="WIyWlLk6GJQsqaUBKTNV-1" source="wGsFatY27bWZe55Ay8HK-87" target="wGsFatY27bWZe55Ay8HK-106">
          <mxGeometry x="-0.4992" y="-25" width="160" relative="1" as="geometry">
            <mxPoint x="1740" y="500" as="sourcePoint" />
            <mxPoint x="2062" y="595" as="targetPoint" />
            <mxPoint y="-1" as="offset" />
          </mxGeometry>
        </mxCell>
        <mxCell id="wGsFatY27bWZe55Ay8HK-110" value="ProductPriceQuantityVal" style="swimlane;fontStyle=0;align=center;verticalAlign=top;childLayout=stackLayout;horizontal=1;startSize=26;horizontalStack=0;resizeParent=1;resizeLast=0;collapsible=1;marginBottom=0;rounded=0;shadow=0;strokeWidth=1;" vertex="1" parent="WIyWlLk6GJQsqaUBKTNV-1">
          <mxGeometry x="1880" y="650" width="230" height="110" as="geometry">
            <mxRectangle x="550" y="140" width="160" height="26" as="alternateBounds" />
          </mxGeometry>
        </mxCell>
        <mxCell id="wGsFatY27bWZe55Ay8HK-111" value="" style="line;html=1;strokeWidth=1;align=left;verticalAlign=middle;spacingTop=-1;spacingLeft=3;spacingRight=3;rotatable=0;labelPosition=right;points=[];portConstraint=eastwest;" vertex="1" parent="wGsFatY27bWZe55Ay8HK-110">
          <mxGeometry y="26" width="230" height="8" as="geometry" />
        </mxCell>
        <mxCell id="wGsFatY27bWZe55Ay8HK-112" value="&#xa;+ validate(t : Product):void&lt;&lt;override&gt;&gt;" style="text;align=left;verticalAlign=top;spacingLeft=4;spacingRight=4;overflow=hidden;rotatable=0;points=[[0,0.5],[1,0.5]];portConstraint=eastwest;" vertex="1" parent="wGsFatY27bWZe55Ay8HK-110">
          <mxGeometry y="34" width="230" height="50" as="geometry" />
        </mxCell>
        <mxCell id="wGsFatY27bWZe55Ay8HK-113" value="Implements Validator&amp;lt;Product&amp;gt;" style="endArrow=open;endSize=12;dashed=1;html=1;rounded=0;exitX=0.375;exitY=1.15;exitDx=0;exitDy=0;exitPerimeter=0;entryX=0;entryY=0;entryDx=0;entryDy=0;" edge="1" parent="WIyWlLk6GJQsqaUBKTNV-1" source="wGsFatY27bWZe55Ay8HK-87" target="wGsFatY27bWZe55Ay8HK-110">
          <mxGeometry x="0.0463" y="-37" width="160" relative="1" as="geometry">
            <mxPoint x="1660" y="460" as="sourcePoint" />
            <mxPoint x="1720" y="724" as="targetPoint" />
            <mxPoint as="offset" />
          </mxGeometry>
        </mxCell>
        <mxCell id="wGsFatY27bWZe55Ay8HK-115" value="BillBLL" style="swimlane;fontStyle=0;align=center;verticalAlign=top;childLayout=stackLayout;horizontal=1;startSize=26;horizontalStack=0;resizeParent=1;resizeLast=0;collapsible=1;marginBottom=0;rounded=0;shadow=0;strokeWidth=1;" vertex="1" parent="WIyWlLk6GJQsqaUBKTNV-1">
          <mxGeometry x="-100" y="900" width="360" height="140" as="geometry">
            <mxRectangle x="550" y="140" width="160" height="26" as="alternateBounds" />
          </mxGeometry>
        </mxCell>
        <mxCell id="wGsFatY27bWZe55Ay8HK-116" value="- billDAO : BillDAO" style="text;align=left;verticalAlign=top;spacingLeft=4;spacingRight=4;overflow=hidden;rotatable=0;points=[[0,0.5],[1,0.5]];portConstraint=eastwest;fontStyle=4" vertex="1" parent="wGsFatY27bWZe55Ay8HK-115">
          <mxGeometry y="26" width="360" height="26" as="geometry" />
        </mxCell>
        <mxCell id="wGsFatY27bWZe55Ay8HK-118" value="" style="line;html=1;strokeWidth=1;align=left;verticalAlign=middle;spacingTop=-1;spacingLeft=3;spacingRight=3;rotatable=0;labelPosition=right;points=[];portConstraint=eastwest;" vertex="1" parent="wGsFatY27bWZe55Ay8HK-115">
          <mxGeometry y="52" width="360" height="8" as="geometry" />
        </mxCell>
        <mxCell id="wGsFatY27bWZe55Ay8HK-119" value="+ BilBLL() &#xa;+ billTable():Map.Entry&lt;Object[ ][ ],ArrayList&lt;String&gt;&gt;&#xa;+ makeJTable():JTable&#xa;+ insertBillDB(name:String,productName:String,quantity:int,&#xa;totalPrice:double):int" style="text;align=left;verticalAlign=top;spacingLeft=4;spacingRight=4;overflow=hidden;rotatable=0;points=[[0,0.5],[1,0.5]];portConstraint=eastwest;" vertex="1" parent="wGsFatY27bWZe55Ay8HK-115">
          <mxGeometry y="60" width="360" height="80" as="geometry" />
        </mxCell>
        <mxCell id="wGsFatY27bWZe55Ay8HK-122" value="" style="endArrow=diamondThin;endFill=1;endSize=24;html=1;rounded=0;entryX=0.089;entryY=1.015;entryDx=0;entryDy=0;entryPerimeter=0;exitX=0.651;exitY=-0.002;exitDx=0;exitDy=0;exitPerimeter=0;" edge="1" parent="WIyWlLk6GJQsqaUBKTNV-1" source="wGsFatY27bWZe55Ay8HK-115" target="wGsFatY27bWZe55Ay8HK-14">
          <mxGeometry width="160" relative="1" as="geometry">
            <mxPoint x="985" y="450" as="sourcePoint" />
            <mxPoint x="890" y="592" as="targetPoint" />
          </mxGeometry>
        </mxCell>
        <mxCell id="wGsFatY27bWZe55Ay8HK-123" value="" style="endArrow=diamondThin;endFill=1;endSize=24;html=1;rounded=0;entryX=1.004;entryY=0.132;entryDx=0;entryDy=0;entryPerimeter=0;exitX=0;exitY=0;exitDx=0;exitDy=0;" edge="1" parent="WIyWlLk6GJQsqaUBKTNV-1" source="wGsFatY27bWZe55Ay8HK-51" target="wGsFatY27bWZe55Ay8HK-119">
          <mxGeometry width="160" relative="1" as="geometry">
            <mxPoint x="220" y="1046" as="sourcePoint" />
            <mxPoint x="295" y="860" as="targetPoint" />
          </mxGeometry>
        </mxCell>
        <mxCell id="wGsFatY27bWZe55Ay8HK-124" value="ClientBLL" style="swimlane;fontStyle=0;align=center;verticalAlign=top;childLayout=stackLayout;horizontal=1;startSize=26;horizontalStack=0;resizeParent=1;resizeLast=0;collapsible=1;marginBottom=0;rounded=0;shadow=0;strokeWidth=1;" vertex="1" parent="WIyWlLk6GJQsqaUBKTNV-1">
          <mxGeometry x="1430" y="100" width="360" height="148" as="geometry">
            <mxRectangle x="550" y="140" width="160" height="26" as="alternateBounds" />
          </mxGeometry>
        </mxCell>
        <mxCell id="wGsFatY27bWZe55Ay8HK-125" value="- clientDAO : ClientDAO&#xa;-validators : List&lt;Validator&lt;Client&gt;&gt;" style="text;align=left;verticalAlign=top;spacingLeft=4;spacingRight=4;overflow=hidden;rotatable=0;points=[[0,0.5],[1,0.5]];portConstraint=eastwest;fontStyle=4" vertex="1" parent="wGsFatY27bWZe55Ay8HK-124">
          <mxGeometry y="26" width="360" height="34" as="geometry" />
        </mxCell>
        <mxCell id="wGsFatY27bWZe55Ay8HK-126" value="" style="line;html=1;strokeWidth=1;align=left;verticalAlign=middle;spacingTop=-1;spacingLeft=3;spacingRight=3;rotatable=0;labelPosition=right;points=[];portConstraint=eastwest;" vertex="1" parent="wGsFatY27bWZe55Ay8HK-124">
          <mxGeometry y="60" width="360" height="8" as="geometry" />
        </mxCell>
        <mxCell id="wGsFatY27bWZe55Ay8HK-127" value="+ ClientBLL() &#xa;+clientTable():Map.Entry&lt;Object[ ][ ],ArrayList&lt;String&gt;&gt;&#xa;+updateClient(fields:String[ ]):void&#xa;+ addClient(fields:String[ ]):ArrayList&lt;Object&gt;&#xa;+deleteClient(id:int):boolean" style="text;align=left;verticalAlign=top;spacingLeft=4;spacingRight=4;overflow=hidden;rotatable=0;points=[[0,0.5],[1,0.5]];portConstraint=eastwest;" vertex="1" parent="wGsFatY27bWZe55Ay8HK-124">
          <mxGeometry y="68" width="360" height="80" as="geometry" />
        </mxCell>
        <mxCell id="wGsFatY27bWZe55Ay8HK-129" value="" style="endArrow=block;endFill=1;html=1;edgeStyle=orthogonalEdgeStyle;align=left;verticalAlign=top;rounded=0;exitX=0;exitY=0.1;exitDx=0;exitDy=0;exitPerimeter=0;" edge="1" parent="WIyWlLk6GJQsqaUBKTNV-1" source="wGsFatY27bWZe55Ay8HK-89" target="wGsFatY27bWZe55Ay8HK-127">
          <mxGeometry x="-1" relative="1" as="geometry">
            <mxPoint x="1590" y="260" as="sourcePoint" />
            <mxPoint x="1750" y="260" as="targetPoint" />
          </mxGeometry>
        </mxCell>
        <mxCell id="wGsFatY27bWZe55Ay8HK-130" value="1" style="edgeLabel;resizable=0;html=1;align=left;verticalAlign=bottom;" connectable="0" vertex="1" parent="wGsFatY27bWZe55Ay8HK-129">
          <mxGeometry x="-1" relative="1" as="geometry" />
        </mxCell>
        <mxCell id="wGsFatY27bWZe55Ay8HK-133" value="Extends Validation&amp;lt;Client&amp;gt;" style="edgeLabel;html=1;align=center;verticalAlign=middle;resizable=0;points=[];" vertex="1" connectable="0" parent="wGsFatY27bWZe55Ay8HK-129">
          <mxGeometry x="0.0106" y="-1" relative="1" as="geometry">
            <mxPoint as="offset" />
          </mxGeometry>
        </mxCell>
        <mxCell id="wGsFatY27bWZe55Ay8HK-131" value="" style="endArrow=diamondThin;endFill=1;endSize=24;html=1;rounded=0;exitX=0.14;exitY=-0.057;exitDx=0;exitDy=0;exitPerimeter=0;entryX=0.417;entryY=1.039;entryDx=0;entryDy=0;entryPerimeter=0;" edge="1" parent="WIyWlLk6GJQsqaUBKTNV-1" source="wGsFatY27bWZe55Ay8HK-85" target="wGsFatY27bWZe55Ay8HK-127">
          <mxGeometry width="160" relative="1" as="geometry">
            <mxPoint x="1550" y="250" as="sourcePoint" />
            <mxPoint x="1710" y="250" as="targetPoint" />
          </mxGeometry>
        </mxCell>
        <mxCell id="wGsFatY27bWZe55Ay8HK-132" value="" style="endArrow=diamondThin;endFill=1;endSize=24;html=1;rounded=0;entryX=0.158;entryY=1.048;entryDx=0;entryDy=0;entryPerimeter=0;" edge="1" parent="WIyWlLk6GJQsqaUBKTNV-1" source="wGsFatY27bWZe55Ay8HK-57" target="wGsFatY27bWZe55Ay8HK-127">
          <mxGeometry width="160" relative="1" as="geometry">
            <mxPoint x="1480" y="345" as="sourcePoint" />
            <mxPoint x="1494" y="280" as="targetPoint" />
          </mxGeometry>
        </mxCell>
        <mxCell id="wGsFatY27bWZe55Ay8HK-134" value="OrderBLL" style="swimlane;fontStyle=0;align=center;verticalAlign=top;childLayout=stackLayout;horizontal=1;startSize=26;horizontalStack=0;resizeParent=1;resizeLast=0;collapsible=1;marginBottom=0;rounded=0;shadow=0;strokeWidth=1;" vertex="1" parent="WIyWlLk6GJQsqaUBKTNV-1">
          <mxGeometry x="1870" y="840" width="410" height="148" as="geometry">
            <mxRectangle x="550" y="140" width="160" height="26" as="alternateBounds" />
          </mxGeometry>
        </mxCell>
        <mxCell id="wGsFatY27bWZe55Ay8HK-135" value="-productDAO : ProductDAO&#xa;-orderDAO: OrderDAO" style="text;align=left;verticalAlign=top;spacingLeft=4;spacingRight=4;overflow=hidden;rotatable=0;points=[[0,0.5],[1,0.5]];portConstraint=eastwest;fontStyle=4" vertex="1" parent="wGsFatY27bWZe55Ay8HK-134">
          <mxGeometry y="26" width="410" height="34" as="geometry" />
        </mxCell>
        <mxCell id="wGsFatY27bWZe55Ay8HK-136" value="" style="line;html=1;strokeWidth=1;align=left;verticalAlign=middle;spacingTop=-1;spacingLeft=3;spacingRight=3;rotatable=0;labelPosition=right;points=[];portConstraint=eastwest;" vertex="1" parent="wGsFatY27bWZe55Ay8HK-134">
          <mxGeometry y="60" width="410" height="8" as="geometry" />
        </mxCell>
        <mxCell id="wGsFatY27bWZe55Ay8HK-137" value="+ OrderBLL() &#xa;+orderTable():Map.Entry&lt;Object[ ][ ],ArrayList&lt;String&gt;&gt;&#xa;+ addOrder(id_client:int,id_product:int,total_price:double&#xa;,quantity:int.quantity_demanded:int):Map.Entry&lt;Integer,ArrayList&lt;Object&gt;&gt;&#xa;+deleteOrder(id:int):boolean" style="text;align=left;verticalAlign=top;spacingLeft=4;spacingRight=4;overflow=hidden;rotatable=0;points=[[0,0.5],[1,0.5]];portConstraint=eastwest;" vertex="1" parent="wGsFatY27bWZe55Ay8HK-134">
          <mxGeometry y="68" width="410" height="80" as="geometry" />
        </mxCell>
        <mxCell id="wGsFatY27bWZe55Ay8HK-138" value="" style="endArrow=diamondThin;endFill=1;endSize=24;html=1;rounded=0;entryX=0;entryY=0;entryDx=0;entryDy=0;exitX=1.001;exitY=-0.045;exitDx=0;exitDy=0;exitPerimeter=0;" edge="1" parent="WIyWlLk6GJQsqaUBKTNV-1" source="wGsFatY27bWZe55Ay8HK-11" target="wGsFatY27bWZe55Ay8HK-124">
          <mxGeometry width="160" relative="1" as="geometry">
            <mxPoint x="1503" y="1298" as="sourcePoint" />
            <mxPoint x="1450" y="310" as="targetPoint" />
          </mxGeometry>
        </mxCell>
        <mxCell id="wGsFatY27bWZe55Ay8HK-139" value="" style="endArrow=block;endFill=1;html=1;edgeStyle=orthogonalEdgeStyle;align=left;verticalAlign=top;rounded=0;exitX=1.007;exitY=1.057;exitDx=0;exitDy=0;exitPerimeter=0;entryX=1;entryY=1;entryDx=0;entryDy=0;" edge="1" parent="WIyWlLk6GJQsqaUBKTNV-1" source="wGsFatY27bWZe55Ay8HK-135" target="wGsFatY27bWZe55Ay8HK-89">
          <mxGeometry x="-1" relative="1" as="geometry">
            <mxPoint x="2690" y="1082" as="sourcePoint" />
            <mxPoint x="2450" y="330" as="targetPoint" />
          </mxGeometry>
        </mxCell>
        <mxCell id="wGsFatY27bWZe55Ay8HK-141" value="Extends Validation&amp;lt;Order&amp;gt;" style="edgeLabel;html=1;align=center;verticalAlign=middle;resizable=0;points=[];" vertex="1" connectable="0" parent="wGsFatY27bWZe55Ay8HK-139">
          <mxGeometry x="0.0106" y="-1" relative="1" as="geometry">
            <mxPoint as="offset" />
          </mxGeometry>
        </mxCell>
        <mxCell id="wGsFatY27bWZe55Ay8HK-142" value="" style="endArrow=diamondThin;endFill=1;endSize=24;html=1;rounded=0;exitX=1;exitY=0;exitDx=0;exitDy=0;entryX=0;entryY=0.25;entryDx=0;entryDy=0;" edge="1" parent="WIyWlLk6GJQsqaUBKTNV-1" source="wGsFatY27bWZe55Ay8HK-63" target="wGsFatY27bWZe55Ay8HK-134">
          <mxGeometry width="160" relative="1" as="geometry">
            <mxPoint x="1650" y="465" as="sourcePoint" />
            <mxPoint x="1664" y="400" as="targetPoint" />
          </mxGeometry>
        </mxCell>
        <mxCell id="wGsFatY27bWZe55Ay8HK-143" value="" style="endArrow=diamondThin;endFill=1;endSize=24;html=1;rounded=0;exitX=0.995;exitY=0.753;exitDx=0;exitDy=0;exitPerimeter=0;entryX=-0.006;entryY=0.096;entryDx=0;entryDy=0;entryPerimeter=0;" edge="1" parent="WIyWlLk6GJQsqaUBKTNV-1" source="wGsFatY27bWZe55Ay8HK-71" target="wGsFatY27bWZe55Ay8HK-134">
          <mxGeometry width="160" relative="1" as="geometry">
            <mxPoint x="1940" y="1115" as="sourcePoint" />
            <mxPoint x="1954" y="1050" as="targetPoint" />
          </mxGeometry>
        </mxCell>
        <mxCell id="wGsFatY27bWZe55Ay8HK-144" value="" style="endArrow=diamondThin;endFill=1;endSize=24;html=1;rounded=0;entryX=1.005;entryY=0.6;entryDx=0;entryDy=0;entryPerimeter=0;exitX=0;exitY=0;exitDx=0;exitDy=0;" edge="1" parent="WIyWlLk6GJQsqaUBKTNV-1" source="wGsFatY27bWZe55Ay8HK-134" target="wGsFatY27bWZe55Ay8HK-14">
          <mxGeometry width="160" relative="1" as="geometry">
            <mxPoint x="975" y="480" as="sourcePoint" />
            <mxPoint x="880" y="622" as="targetPoint" />
          </mxGeometry>
        </mxCell>
        <mxCell id="wGsFatY27bWZe55Ay8HK-145" value="ProductBLL" style="swimlane;fontStyle=0;align=center;verticalAlign=top;childLayout=stackLayout;horizontal=1;startSize=26;horizontalStack=0;resizeParent=1;resizeLast=0;collapsible=1;marginBottom=0;rounded=0;shadow=0;strokeWidth=1;" vertex="1" parent="WIyWlLk6GJQsqaUBKTNV-1">
          <mxGeometry x="2180" y="1086" width="360" height="148" as="geometry">
            <mxRectangle x="550" y="140" width="160" height="26" as="alternateBounds" />
          </mxGeometry>
        </mxCell>
        <mxCell id="wGsFatY27bWZe55Ay8HK-146" value="- productDAO : ProductDAO&#xa;-validators : List&lt;Validator&lt;Product&gt;&gt;" style="text;align=left;verticalAlign=top;spacingLeft=4;spacingRight=4;overflow=hidden;rotatable=0;points=[[0,0.5],[1,0.5]];portConstraint=eastwest;fontStyle=4" vertex="1" parent="wGsFatY27bWZe55Ay8HK-145">
          <mxGeometry y="26" width="360" height="34" as="geometry" />
        </mxCell>
        <mxCell id="wGsFatY27bWZe55Ay8HK-147" value="" style="line;html=1;strokeWidth=1;align=left;verticalAlign=middle;spacingTop=-1;spacingLeft=3;spacingRight=3;rotatable=0;labelPosition=right;points=[];portConstraint=eastwest;" vertex="1" parent="wGsFatY27bWZe55Ay8HK-145">
          <mxGeometry y="60" width="360" height="8" as="geometry" />
        </mxCell>
        <mxCell id="wGsFatY27bWZe55Ay8HK-148" value="+ ProductBLL() &#xa;+productTable():Map.Entry&lt;Object[ ][ ],ArrayList&lt;String&gt;&gt;&#xa;+updateProduct(id:int,fields:String[ ]):void&#xa;+ addProduct(fields:String[ ]):ArrayList&lt;Object&gt;&#xa;+deleteProduct(id:int):boolean" style="text;align=left;verticalAlign=top;spacingLeft=4;spacingRight=4;overflow=hidden;rotatable=0;points=[[0,0.5],[1,0.5]];portConstraint=eastwest;" vertex="1" parent="wGsFatY27bWZe55Ay8HK-145">
          <mxGeometry y="68" width="360" height="80" as="geometry" />
        </mxCell>
        <mxCell id="wGsFatY27bWZe55Ay8HK-149" value="" style="endArrow=block;endFill=1;html=1;edgeStyle=orthogonalEdgeStyle;align=left;verticalAlign=top;rounded=0;exitX=1;exitY=0.325;exitDx=0;exitDy=0;exitPerimeter=0;" edge="1" parent="WIyWlLk6GJQsqaUBKTNV-1" source="wGsFatY27bWZe55Ay8HK-148">
          <mxGeometry x="-1" relative="1" as="geometry">
            <mxPoint x="2460" y="1472" as="sourcePoint" />
            <mxPoint x="2400" y="400" as="targetPoint" />
          </mxGeometry>
        </mxCell>
        <mxCell id="wGsFatY27bWZe55Ay8HK-150" value="Extends Validation&amp;lt;Product&amp;gt;" style="edgeLabel;html=1;align=center;verticalAlign=middle;resizable=0;points=[];" vertex="1" connectable="0" parent="wGsFatY27bWZe55Ay8HK-149">
          <mxGeometry x="0.0106" y="-1" relative="1" as="geometry">
            <mxPoint as="offset" />
          </mxGeometry>
        </mxCell>
        <mxCell id="wGsFatY27bWZe55Ay8HK-154" value="" style="endArrow=none;html=1;rounded=0;exitX=1.019;exitY=0.512;exitDx=0;exitDy=0;exitPerimeter=0;" edge="1" parent="WIyWlLk6GJQsqaUBKTNV-1" source="wGsFatY27bWZe55Ay8HK-87">
          <mxGeometry width="50" height="50" relative="1" as="geometry">
            <mxPoint x="1910" y="810" as="sourcePoint" />
            <mxPoint x="2680" y="510" as="targetPoint" />
          </mxGeometry>
        </mxCell>
        <mxCell id="wGsFatY27bWZe55Ay8HK-155" value="" style="endArrow=diamondThin;endFill=1;endSize=24;html=1;rounded=0;" edge="1" parent="WIyWlLk6GJQsqaUBKTNV-1">
          <mxGeometry width="160" relative="1" as="geometry">
            <mxPoint x="2680" y="510" as="sourcePoint" />
            <mxPoint x="2450" y="1080" as="targetPoint" />
          </mxGeometry>
        </mxCell>
        <mxCell id="wGsFatY27bWZe55Ay8HK-156" value="" style="endArrow=none;html=1;rounded=0;exitX=0.778;exitY=1.081;exitDx=0;exitDy=0;exitPerimeter=0;" edge="1" parent="WIyWlLk6GJQsqaUBKTNV-1" source="wGsFatY27bWZe55Ay8HK-148">
          <mxGeometry width="50" height="50" relative="1" as="geometry">
            <mxPoint x="1480" y="940" as="sourcePoint" />
            <mxPoint x="540" y="1530" as="targetPoint" />
          </mxGeometry>
        </mxCell>
        <mxCell id="wGsFatY27bWZe55Ay8HK-159" value="" style="endArrow=diamondThin;endFill=1;endSize=24;html=1;rounded=0;entryX=0.183;entryY=1.02;entryDx=0;entryDy=0;entryPerimeter=0;" edge="1" parent="WIyWlLk6GJQsqaUBKTNV-1" target="wGsFatY27bWZe55Ay8HK-14">
          <mxGeometry width="160" relative="1" as="geometry">
            <mxPoint x="550" y="1530" as="sourcePoint" />
            <mxPoint x="1590" y="920" as="targetPoint" />
          </mxGeometry>
        </mxCell>
        <mxCell id="wGsFatY27bWZe55Ay8HK-160" value="Client" style="swimlane;fontStyle=0;align=center;verticalAlign=top;childLayout=stackLayout;horizontal=1;startSize=26;horizontalStack=0;resizeParent=1;resizeLast=0;collapsible=1;marginBottom=0;rounded=0;shadow=0;strokeWidth=1;" vertex="1" parent="WIyWlLk6GJQsqaUBKTNV-1">
          <mxGeometry x="1330" y="1530" width="270" height="260" as="geometry">
            <mxRectangle x="550" y="140" width="160" height="26" as="alternateBounds" />
          </mxGeometry>
        </mxCell>
        <mxCell id="wGsFatY27bWZe55Ay8HK-161" value="-id: int= 0 &#xa;- name :String&#xa;-email: String" style="text;align=left;verticalAlign=top;spacingLeft=4;spacingRight=4;overflow=hidden;rotatable=0;points=[[0,0.5],[1,0.5]];portConstraint=eastwest;rounded=0;shadow=0;html=0;" vertex="1" parent="wGsFatY27bWZe55Ay8HK-160">
          <mxGeometry y="26" width="270" height="58" as="geometry" />
        </mxCell>
        <mxCell id="wGsFatY27bWZe55Ay8HK-162" value="" style="line;html=1;strokeWidth=1;align=left;verticalAlign=middle;spacingTop=-1;spacingLeft=3;spacingRight=3;rotatable=0;labelPosition=right;points=[];portConstraint=eastwest;" vertex="1" parent="wGsFatY27bWZe55Ay8HK-160">
          <mxGeometry y="84" width="270" height="8" as="geometry" />
        </mxCell>
        <mxCell id="wGsFatY27bWZe55Ay8HK-163" value="+Client()&#xa;+Client(name:String,email:String)&#xa;+Client(id:int,name:String,email:String)&#xa;+ getName() : String&#xa;+ getId():int&#xa;+ getEmail():String&#xa;+ setName(name:String):void&#xa;+setEmail(email:String):void&#xa;+setId(id:int):void&#xa;+ toString():String &lt;&lt;override&gt;&gt;" style="text;align=left;verticalAlign=top;spacingLeft=4;spacingRight=4;overflow=hidden;rotatable=0;points=[[0,0.5],[1,0.5]];portConstraint=eastwest;" vertex="1" parent="wGsFatY27bWZe55Ay8HK-160">
          <mxGeometry y="92" width="270" height="168" as="geometry" />
        </mxCell>
        <mxCell id="wGsFatY27bWZe55Ay8HK-164" value="Orders" style="swimlane;fontStyle=0;align=center;verticalAlign=top;childLayout=stackLayout;horizontal=1;startSize=26;horizontalStack=0;resizeParent=1;resizeLast=0;collapsible=1;marginBottom=0;rounded=0;shadow=0;strokeWidth=1;" vertex="1" parent="WIyWlLk6GJQsqaUBKTNV-1">
          <mxGeometry x="1780" y="1530" width="420" height="386" as="geometry">
            <mxRectangle x="550" y="140" width="160" height="26" as="alternateBounds" />
          </mxGeometry>
        </mxCell>
        <mxCell id="wGsFatY27bWZe55Ay8HK-165" value="-id: int= 0 &#xa;- id_client:int&#xa;-id_product: int&#xa;-quantity:int&#xa;-total_price:double" style="text;align=left;verticalAlign=top;spacingLeft=4;spacingRight=4;overflow=hidden;rotatable=0;points=[[0,0.5],[1,0.5]];portConstraint=eastwest;rounded=0;shadow=0;html=0;" vertex="1" parent="wGsFatY27bWZe55Ay8HK-164">
          <mxGeometry y="26" width="420" height="84" as="geometry" />
        </mxCell>
        <mxCell id="wGsFatY27bWZe55Ay8HK-166" value="" style="line;html=1;strokeWidth=1;align=left;verticalAlign=middle;spacingTop=-1;spacingLeft=3;spacingRight=3;rotatable=0;labelPosition=right;points=[];portConstraint=eastwest;" vertex="1" parent="wGsFatY27bWZe55Ay8HK-164">
          <mxGeometry y="110" width="420" height="8" as="geometry" />
        </mxCell>
        <mxCell id="wGsFatY27bWZe55Ay8HK-167" value="+Orders()&#xa;+Orders(id_client:int,id_product:int,quantity:int,total_price:double)&#xa;+Orders(id:int,id_client:int,id_product:int,quantity:int,total_price:double)&#xa;&#xa;+ getId_client() : int&#xa;+ getId_product() : int&#xa;+ getQuantity() : int&#xa;+ getId():int&#xa;+ getTotal_price() : double&#xa;&#xa;+ setId_client(id_client:int) : void&#xa;+ setId_product(id_product:int) : void&#xa;+ setQuantity(quantity:int) : void&#xa;+ setId(id:int):void&#xa;+ setTotal_price(total_price:double) : void&#xa;+ toString():String &lt;&lt;override&gt;&gt;" style="text;align=left;verticalAlign=top;spacingLeft=4;spacingRight=4;overflow=hidden;rotatable=0;points=[[0,0.5],[1,0.5]];portConstraint=eastwest;" vertex="1" parent="wGsFatY27bWZe55Ay8HK-164">
          <mxGeometry y="118" width="420" height="268" as="geometry" />
        </mxCell>
        <mxCell id="wGsFatY27bWZe55Ay8HK-168" value="Product" style="swimlane;fontStyle=0;align=center;verticalAlign=top;childLayout=stackLayout;horizontal=1;startSize=26;horizontalStack=0;resizeParent=1;resizeLast=0;collapsible=1;marginBottom=0;rounded=0;shadow=0;strokeWidth=1;" vertex="1" parent="WIyWlLk6GJQsqaUBKTNV-1">
          <mxGeometry x="2330" y="1560" width="384" height="370" as="geometry">
            <mxRectangle x="550" y="140" width="160" height="26" as="alternateBounds" />
          </mxGeometry>
        </mxCell>
        <mxCell id="wGsFatY27bWZe55Ay8HK-169" value="-id: int= 0 &#xa;- productName:String&#xa;-productPrice: double&#xa;-quantity:int" style="text;align=left;verticalAlign=top;spacingLeft=4;spacingRight=4;overflow=hidden;rotatable=0;points=[[0,0.5],[1,0.5]];portConstraint=eastwest;rounded=0;shadow=0;html=0;" vertex="1" parent="wGsFatY27bWZe55Ay8HK-168">
          <mxGeometry y="26" width="384" height="64" as="geometry" />
        </mxCell>
        <mxCell id="wGsFatY27bWZe55Ay8HK-170" value="" style="line;html=1;strokeWidth=1;align=left;verticalAlign=middle;spacingTop=-1;spacingLeft=3;spacingRight=3;rotatable=0;labelPosition=right;points=[];portConstraint=eastwest;" vertex="1" parent="wGsFatY27bWZe55Ay8HK-168">
          <mxGeometry y="90" width="384" height="26" as="geometry" />
        </mxCell>
        <mxCell id="wGsFatY27bWZe55Ay8HK-171" value="+Product()&#xa;+Product(productName:String,productPrice: double,quantity:int)&#xa;+Product(id:int,productName:String,productPrice: double,quantity:int)&#xa;+ getProductName() : String&#xa;+ getId():int&#xa;+ getgetProductPrice():double&#xa;+getQuantity() : int&#xa;&#xa;+ setProductName(productName:String) : void&#xa;+ setId(id:int):void&#xa;+ setgetProductPrice(,productPrice: double):void&#xa;+setQuantity(quantity:in) : void&#xa;+ toString():String &lt;&lt;override&gt;&gt;" style="text;align=left;verticalAlign=top;spacingLeft=4;spacingRight=4;overflow=hidden;rotatable=0;points=[[0,0.5],[1,0.5]];portConstraint=eastwest;" vertex="1" parent="wGsFatY27bWZe55Ay8HK-168">
          <mxGeometry y="116" width="384" height="244" as="geometry" />
        </mxCell>
        <mxCell id="wGsFatY27bWZe55Ay8HK-172" value="Bill" style="swimlane;fontStyle=0;align=center;verticalAlign=top;childLayout=stackLayout;horizontal=1;startSize=26;horizontalStack=0;resizeParent=1;resizeLast=0;collapsible=1;marginBottom=0;rounded=0;shadow=0;strokeWidth=1;" vertex="1" parent="WIyWlLk6GJQsqaUBKTNV-1">
          <mxGeometry x="-240" y="1120" width="270" height="182" as="geometry">
            <mxRectangle x="550" y="140" width="160" height="26" as="alternateBounds" />
          </mxGeometry>
        </mxCell>
        <mxCell id="wGsFatY27bWZe55Ay8HK-173" value="id: int&#xa;name :String&#xa;productName: String&#xa;quantity:int&#xa;totalPrice:double&#xa;" style="text;align=left;verticalAlign=top;spacingLeft=4;spacingRight=4;overflow=hidden;rotatable=0;points=[[0,0.5],[1,0.5]];portConstraint=eastwest;rounded=0;shadow=0;html=0;" vertex="1" parent="wGsFatY27bWZe55Ay8HK-172">
          <mxGeometry y="26" width="270" height="84" as="geometry" />
        </mxCell>
        <mxCell id="wGsFatY27bWZe55Ay8HK-174" value="" style="line;html=1;strokeWidth=1;align=left;verticalAlign=middle;spacingTop=-1;spacingLeft=3;spacingRight=3;rotatable=0;labelPosition=right;points=[];portConstraint=eastwest;" vertex="1" parent="wGsFatY27bWZe55Ay8HK-172">
          <mxGeometry y="110" width="270" height="8" as="geometry" />
        </mxCell>
        <mxCell id="wGsFatY27bWZe55Ay8HK-181" value="+Bill()" style="text;align=left;verticalAlign=top;spacingLeft=4;spacingRight=4;overflow=hidden;rotatable=0;points=[[0,0.5],[1,0.5]];portConstraint=eastwest;" vertex="1" parent="wGsFatY27bWZe55Ay8HK-172">
          <mxGeometry y="118" width="270" height="32" as="geometry" />
        </mxCell>
        <mxCell id="wGsFatY27bWZe55Ay8HK-175" value="+Bill()" style="text;align=left;verticalAlign=top;spacingLeft=4;spacingRight=4;overflow=hidden;rotatable=0;points=[[0,0.5],[1,0.5]];portConstraint=eastwest;" vertex="1" parent="wGsFatY27bWZe55Ay8HK-172">
          <mxGeometry y="150" width="270" height="32" as="geometry" />
        </mxCell>
        <mxCell id="wGsFatY27bWZe55Ay8HK-176" value="&amp;lt;&amp;lt;Record&amp;gt;&amp;gt;" style="text;align=center;fontStyle=1;verticalAlign=middle;spacingLeft=3;spacingRight=3;strokeColor=none;rotatable=0;points=[[0,0.5],[1,0.5]];portConstraint=eastwest;html=1;" vertex="1" parent="WIyWlLk6GJQsqaUBKTNV-1">
          <mxGeometry x="-140" y="1094" width="80" height="26" as="geometry" />
        </mxCell>
        <mxCell id="wGsFatY27bWZe55Ay8HK-178" value="Use" style="endArrow=open;endSize=12;dashed=1;html=1;rounded=0;exitX=0.342;exitY=0.999;exitDx=0;exitDy=0;entryX=0.714;entryY=0;entryDx=0;entryDy=0;entryPerimeter=0;exitPerimeter=0;" edge="1" parent="WIyWlLk6GJQsqaUBKTNV-1" source="wGsFatY27bWZe55Ay8HK-137" target="wGsFatY27bWZe55Ay8HK-164">
          <mxGeometry width="160" relative="1" as="geometry">
            <mxPoint x="2341" y="1845" as="sourcePoint" />
            <mxPoint x="2110" y="1370" as="targetPoint" />
          </mxGeometry>
        </mxCell>
        <mxCell id="wGsFatY27bWZe55Ay8HK-179" value="Use" style="endArrow=open;endSize=12;dashed=1;html=1;rounded=0;entryX=0.75;entryY=0;entryDx=0;entryDy=0;exitX=-0.001;exitY=1.078;exitDx=0;exitDy=0;exitPerimeter=0;" edge="1" parent="WIyWlLk6GJQsqaUBKTNV-1" source="wGsFatY27bWZe55Ay8HK-127" target="wGsFatY27bWZe55Ay8HK-160">
          <mxGeometry width="160" relative="1" as="geometry">
            <mxPoint x="1400" y="290" as="sourcePoint" />
            <mxPoint x="1940" y="1220" as="targetPoint" />
          </mxGeometry>
        </mxCell>
        <mxCell id="wGsFatY27bWZe55Ay8HK-180" value="Use" style="endArrow=open;endSize=12;dashed=1;html=1;rounded=0;entryX=0.53;entryY=-0.005;entryDx=0;entryDy=0;entryPerimeter=0;exitX=0.827;exitY=1.041;exitDx=0;exitDy=0;exitPerimeter=0;" edge="1" parent="WIyWlLk6GJQsqaUBKTNV-1" source="wGsFatY27bWZe55Ay8HK-148" target="wGsFatY27bWZe55Ay8HK-168">
          <mxGeometry width="160" relative="1" as="geometry">
            <mxPoint x="2410" y="1550" as="sourcePoint" />
            <mxPoint x="2090" y="1430" as="targetPoint" />
          </mxGeometry>
        </mxCell>
        <mxCell id="wGsFatY27bWZe55Ay8HK-93" value="Use" style="endArrow=open;endSize=12;dashed=1;html=1;rounded=0;exitX=0;exitY=0.1;exitDx=0;exitDy=0;exitPerimeter=0;entryX=1;entryY=0.25;entryDx=0;entryDy=0;" edge="1" parent="WIyWlLk6GJQsqaUBKTNV-1" source="wGsFatY27bWZe55Ay8HK-91" target="wGsFatY27bWZe55Ay8HK-85">
          <mxGeometry width="160" relative="1" as="geometry">
            <mxPoint x="1940" y="330" as="sourcePoint" />
            <mxPoint x="2100" y="330" as="targetPoint" />
          </mxGeometry>
        </mxCell>
        <mxCell id="wGsFatY27bWZe55Ay8HK-183" value="Use" style="endArrow=open;endSize=12;dashed=1;html=1;rounded=0;entryX=0.813;entryY=0.005;entryDx=0;entryDy=0;entryPerimeter=0;" edge="1" parent="WIyWlLk6GJQsqaUBKTNV-1" source="wGsFatY27bWZe55Ay8HK-119" target="wGsFatY27bWZe55Ay8HK-172">
          <mxGeometry width="160" relative="1" as="geometry">
            <mxPoint x="60" y="1160" as="sourcePoint" />
            <mxPoint x="220" y="1160" as="targetPoint" />
          </mxGeometry>
        </mxCell>
      </root>
    </mxGraphModel>
  </diagram>
</mxfile>
